<svg id="visual" viewBox="0 0 900 600" width="900" height="600" xmlns="http://www.w3.org/2000/svg" xmlns:xlink="http://www.w3.org/1999/xlink" version="1.1"><rect x="0" y="0" width="900" height="600" fill="#002233"></rect><path d="M0 486L25 490.7C50 495.3 100 504.7 150 499.8C200 495 250 476 300 465C350 454 400 451 450 461.7C500 472.3 550 496.7 600 504.8C650 513 700 505 750 500.3C800 495.7 850 494.3 875 493.7L900 493L900 601L875 601C850 601 800 601 750 601C700 601 650 601 600 601C550 601 500 601 450 601C400 601 350 601 300 601C250 601 200 601 150 601C100 601 50 601 25 601L0 601Z" fill="#00bb77" stroke-linecap="round" stroke-linejoin="miter"></path></svg>